<svg xmlns="http://www.w3.org/2000/svg" xmlns:xlink="http://www.w3.org/1999/xlink" viewBox="0 0 810.02 221"><defs><style>.cls-1{fill:url(#Dégradé_sans_nom_51);}.cls-2{fill:url(#Dégradé_sans_nom_52);}.cls-3{fill:url(#Dégradé_sans_nom_52-2);}.cls-4{fill:url(#Dégradé_sans_nom_52-3);}.cls-5,.cls-6{fill:#2f3134;stroke:#f2f2f2;stroke-miterlimit:10;}.cls-5{stroke-width:1.01px;}.cls-7{fill:url(#Dégradé_sans_nom_52-4);}.cls-8{fill:#f2f2f2;}</style><linearGradient id="Dégradé_sans_nom_51" x1="-10.44" y1="94.5" x2="819.62" y2="94.5" gradientUnits="userSpaceOnUse"><stop offset="0.4" stop-color="#544f9c"/><stop offset="0.7" stop-color="#d44894"/><stop offset="1" stop-color="#ea5447"/></linearGradient><linearGradient id="Dégradé_sans_nom_52" x1="-10.44" y1="94.5" x2="819.62" y2="94.5" gradientUnits="userSpaceOnUse"><stop offset="0" stop-color="#4593d0"/><stop offset="0.4" stop-color="#544f9c"/><stop offset="0.7" stop-color="#d44894"/><stop offset="1" stop-color="#ea5447"/></linearGradient><linearGradient id="Dégradé_sans_nom_52-2" x1="-10.44" y1="94.86" x2="819.62" y2="94.86" xlink:href="#Dégradé_sans_nom_52"/><linearGradient id="Dégradé_sans_nom_52-3" x1="-10.44" y1="16.5" x2="819.62" y2="16.5" xlink:href="#Dégradé_sans_nom_52"/><linearGradient id="Dégradé_sans_nom_52-4" x1="51.17" y1="196" x2="758.17" y2="196" xlink:href="#Dégradé_sans_nom_52"/></defs><g id="Calque_2" data-name="Calque 2"><g id="Logo"><path class="cls-1" d="M810,115l-16,37h-117l-47.47-31.6L696.26,73H608.15a22.87,22.87,0,0,0-13.4,4.34L567.58,97l83,55H587l-75.8-50.85L488.52,152H442.66L494.38,37h45.84L517.29,88l68.49-49.47A8,8,0,0,1,590.46,37h219.1L700.93,115Z"/><polygon class="cls-2" points="478.11 37 426.38 152 380.57 152 432.3 37 478.11 37"/><path class="cls-3" d="M415.69,37,363.52,152H317l17.59-38.52L293.62,152H269.17L244.86,91.79l-21.15,47A22.16,22.16,0,0,1,203,152H153.58a26.49,26.49,0,0,1-15.78-4.53L69.48,102,46.9,153H0L52.16,37h45.7L75.05,87.72,145.25,37h62.82L125.33,96.78l21.58,14.38A22.91,22.91,0,0,0,159.6,115h14.13a22.91,22.91,0,0,0,20.88-13.5l28.95-64.78,45.65.28,23.13,57.51L353.09,37Z"/><polygon id="I" class="cls-4" points="480.56 33 434.45 33 449.24 0 495.36 0 480.56 33"/></g><g id="Intérieur"><g id="K"><polygon class="cls-5" points="90.01 42.5 62.53 103.58 42.78 147.5 7.95 147.5 55.18 42.5 90.01 42.5"/><path class="cls-5" d="M408.05,42.5l-47.64,105H325.63l25.11-55.32L292.28,147.5H273.07L245.45,78.81,219.3,137A17.91,17.91,0,0,1,203,147.5H153.27a23.46,23.46,0,0,1-13.09-4L70.86,97.35,146.79,42.5h45.62L117.35,96.73l27.26,18.16a27.33,27.33,0,0,0,15.23,4.61h13.85a27.52,27.52,0,0,0,25.06-16.22L225.92,42.5h39.92l24.64,61.28L355.21,42.5Z"/><polygon class="cls-6" points="469.82 42.5 423.04 146.5 388.56 146.5 435.35 42.5 469.82 42.5"/><polygon class="cls-5" points="487.66 4.5 477.35 27.5 442.15 27.5 452.46 4.5 487.66 4.5"/><polygon class="cls-5" points="532.49 42.5 509.1 94.48 485.26 147.5 450.44 147.5 497.66 42.5 532.49 42.5"/><path class="cls-5" d="M802.38,120.5l-11.65,27H678.6l-40.1-26.69L712,68.5H608.17a27.93,27.93,0,0,0-16.4,5.3l-33,23.87,75.09,49.83H588.59L513.46,97.41,587.37,44a8,8,0,0,1,4.69-1.52H793.93l-108.63,78Z"/></g></g><g id="Slogan"><path class="cls-7" d="M701.54,221H107.8a16,16,0,0,1-11.32-4.69L51.17,171h707l-45.31,45.31A16,16,0,0,1,701.54,221Z"/><path class="cls-6" d="M746.1,176l-36.78,36.78a10.9,10.9,0,0,1-7.78,3.22H107.8a10.92,10.92,0,0,1-7.78-3.22L63.24,176Z"/><path class="cls-8" d="M308.12,185.22c.12.56.28,1.35.48,2.38s.41,2.17.62,3.41.45,2.51.68,3.81.43,2.49.62,3.57l2.31-3.5,2.47-3.68q1.21-1.82,2.31-3.39c.73-1,1.35-1.92,1.87-2.6h4.31c-.15,1.43-.34,3.05-.58,4.84s-.51,3.64-.81,5.55-.62,3.84-.95,5.78-.67,3.76-1,5.46h-4.7s.91-4.36,1.41-6.85.95-5,1.37-7.55l-1.83,2.89-2,3.21c-.67,1.09-1.32,2.12-1.95,3.11a7.44,7.44,0,0,1-1.64,2.1H307.5a11,11,0,0,1-.38-2c-.15-1-.31-2-.49-3.07s-.36-2.17-.55-3.28-.37-2.09-.54-3c-.82,2.55-1.56,5.06-2.22,7.55s-1.85,6.85-1.85,6.85h-4.63c.48-1.7,1-3.53,1.58-5.46s1.17-3.87,1.78-5.79,1.22-3.79,1.83-5.58,1.17-3.39,1.71-4.8Z"/><path class="cls-8" d="M335.3,207.4a9.59,9.59,0,0,1-3.53-.63A7.94,7.94,0,0,1,329,205a8.31,8.31,0,0,1-1.81-2.88,10.83,10.83,0,0,1-.64-3.85,14.54,14.54,0,0,1,.85-4.88,14.09,14.09,0,0,1,2.44-4.37,12.61,12.61,0,0,1,3.89-3.15,11,11,0,0,1,5.21-1.22,9.63,9.63,0,0,1,3.53.63,7.9,7.9,0,0,1,2.77,1.82,8.17,8.17,0,0,1,1.81,2.88,10.83,10.83,0,0,1,.65,3.85,15,15,0,0,1-.84,4.9,13.78,13.78,0,0,1-2.42,4.38,12.48,12.48,0,0,1-3.9,3.14A11.14,11.14,0,0,1,335.3,207.4Zm3.12-18.57a5.1,5.1,0,0,0-2.69.75,7.59,7.59,0,0,0-2.18,2,10,10,0,0,0-1.45,2.9,11,11,0,0,0-.52,3.38,6.74,6.74,0,0,0,1,3.83,3.64,3.64,0,0,0,3.23,1.46,5.14,5.14,0,0,0,2.7-.75,7.69,7.69,0,0,0,2.17-2,9.68,9.68,0,0,0,1.45-2.89,10.93,10.93,0,0,0,.53-3.39,6.74,6.74,0,0,0-1-3.83A3.63,3.63,0,0,0,338.42,188.83Z"/><path class="cls-8" d="M367.64,185.22l-.94,3.86h-5.85l-4.27,17.77h-4.93l4.27-17.77h-5.8l.94-3.86Z"/><path class="cls-8" d="M376,207.4a9.59,9.59,0,0,1-3.53-.63,7.94,7.94,0,0,1-2.78-1.82,8.31,8.31,0,0,1-1.81-2.88,10.83,10.83,0,0,1-.65-3.85,14.55,14.55,0,0,1,.86-4.88,14.09,14.09,0,0,1,2.44-4.37,12.61,12.61,0,0,1,3.89-3.15,11,11,0,0,1,5.2-1.22,9.56,9.56,0,0,1,3.53.63,7.85,7.85,0,0,1,2.78,1.82,8.17,8.17,0,0,1,1.81,2.88,10.83,10.83,0,0,1,.65,3.85,15,15,0,0,1-.84,4.9,13.8,13.8,0,0,1-2.43,4.38,12.33,12.33,0,0,1-3.89,3.14A11.14,11.14,0,0,1,376,207.4Zm3.12-18.57a5.14,5.14,0,0,0-2.7.75,7.69,7.69,0,0,0-2.17,2,10,10,0,0,0-1.45,2.9,11,11,0,0,0-.52,3.38,6.74,6.74,0,0,0,1,3.83,3.63,3.63,0,0,0,3.23,1.46,5.14,5.14,0,0,0,2.7-.75,7.69,7.69,0,0,0,2.17-2,9.68,9.68,0,0,0,1.45-2.89,10.92,10.92,0,0,0,.52-3.39,6.74,6.74,0,0,0-1-3.83A3.63,3.63,0,0,0,379.12,188.83Z"/><path class="cls-8" d="M400.92,185.44a11.94,11.94,0,0,1,3.57.49,7.69,7.69,0,0,1,2.54,1.31,5.14,5.14,0,0,1,1.49,1.94,5.75,5.75,0,0,1,.49,2.34,8.39,8.39,0,0,1-.23,2,5.2,5.2,0,0,1-.85,1.86,7.07,7.07,0,0,1-1.68,1.63,9.84,9.84,0,0,1-2.7,1.27,37.34,37.34,0,0,1,1.75,3.85c.6,1.51,1.17,3.08,1.7,4.73h-5.1c-.47-1.4-.95-2.79-1.42-4.17a19.68,19.68,0,0,0-1.61-3.55h-2.38l-1.86,7.72h-4.74l5-20.86c1.1-.2,2.17-.34,3.21-.43S400.06,185.44,400.92,185.44Zm-.11,3.74-1.11,0-.94.06-1.42,6H399a9.77,9.77,0,0,0,2.55-.28,5,5,0,0,0,1.68-.76,2.69,2.69,0,0,0,.89-1.09,3,3,0,0,0,.27-1.24,3.22,3.22,0,0,0-.16-1,2,2,0,0,0-.56-.86,2.73,2.73,0,0,0-1.11-.6A5.81,5.81,0,0,0,400.81,189.18Z"/><path class="cls-8" d="M416.38,203.3a10.11,10.11,0,0,0,1.45-.11,4.44,4.44,0,0,0,1.29-.4,2.4,2.4,0,0,0,.93-.8,2.23,2.23,0,0,0,.37-1.34,1.78,1.78,0,0,0-.35-1.09,4.13,4.13,0,0,0-.88-.83,7.72,7.72,0,0,0-1.2-.7c-.44-.21-.88-.44-1.33-.69a18.55,18.55,0,0,1-1.6-1.07,6.58,6.58,0,0,1-1.3-1.28,6.25,6.25,0,0,1-.85-1.57,5.89,5.89,0,0,1-.31-2,6.54,6.54,0,0,1,.55-2.69,5.92,5.92,0,0,1,1.64-2.16,7.85,7.85,0,0,1,2.73-1.44,12.92,12.92,0,0,1,3.84-.52,10.51,10.51,0,0,1,2,.18,14.19,14.19,0,0,1,1.76.42,10.42,10.42,0,0,1,1.5.59,10.56,10.56,0,0,1,1.15.64l-2.05,3.63a7.09,7.09,0,0,0-1.92-1,7.3,7.3,0,0,0-2.46-.41,6.91,6.91,0,0,0-1.39.13,3.4,3.4,0,0,0-1.16.42,2.4,2.4,0,0,0-.81.77,2.45,2.45,0,0,0-.06,2.23,2.71,2.71,0,0,0,.61.74,4.35,4.35,0,0,0,.89.56l1.07.54c.65.34,1.28.69,1.89,1.07a8.3,8.3,0,0,1,1.61,1.31,5.8,5.8,0,0,1,1.1,1.69,5.62,5.62,0,0,1,.41,2.23,7,7,0,0,1-.66,3.13,6.07,6.07,0,0,1-1.86,2.2,8.13,8.13,0,0,1-2.85,1.31,15,15,0,0,1-3.68.43,13.67,13.67,0,0,1-2.47-.22,18,18,0,0,1-2.08-.52,11,11,0,0,1-1.61-.65,9.44,9.44,0,0,1-1.09-.63l2.08-3.75a11.6,11.6,0,0,0,2.13,1.07,10.34,10.34,0,0,0,1.43.42A6.83,6.83,0,0,0,416.38,203.3Z"/><path class="cls-8" d="M439.08,185.84a13.22,13.22,0,0,1,3.4.4,7.65,7.65,0,0,1,2.56,1.17,5.3,5.3,0,0,1,1.62,1.88,5.36,5.36,0,0,1,.57,2.48,7.72,7.72,0,0,1-.87,3.81,6.9,6.9,0,0,1-2.4,2.52,10.73,10.73,0,0,1-3.6,1.38,22.47,22.47,0,0,1-4.49.42H434.7L433,206.85h-4.65l4.89-20.47a30.77,30.77,0,0,1,3.07-.42C437.3,185.88,438.22,185.84,439.08,185.84Zm-.35,2.9c-.36,0-.66,0-.91,0l-.76.06-1.51,6.43h1.23a13.73,13.73,0,0,0,2.41-.2,5.75,5.75,0,0,0,1.86-.68,3.56,3.56,0,0,0,1.2-1.21,3.66,3.66,0,0,0,.42-1.82,2.16,2.16,0,0,0-1-2A6,6,0,0,0,438.73,188.74Z"/><path class="cls-8" d="M458.31,207.4a9.59,9.59,0,0,1-3.53-.63A7.94,7.94,0,0,1,452,205a8.31,8.31,0,0,1-1.81-2.88,10.83,10.83,0,0,1-.65-3.85,14.55,14.55,0,0,1,.86-4.88,14.09,14.09,0,0,1,2.44-4.37,12.61,12.61,0,0,1,3.89-3.15,11,11,0,0,1,5.2-1.22,9.56,9.56,0,0,1,3.53.63,7.85,7.85,0,0,1,2.78,1.82,8.17,8.17,0,0,1,1.81,2.88,10.83,10.83,0,0,1,.65,3.85,15,15,0,0,1-.84,4.9,13.8,13.8,0,0,1-2.43,4.38,12.33,12.33,0,0,1-3.89,3.14A11.14,11.14,0,0,1,458.31,207.4Zm3.12-18.57a5.14,5.14,0,0,0-2.7.75,7.69,7.69,0,0,0-2.17,2,10,10,0,0,0-1.45,2.9,11,11,0,0,0-.52,3.38,6.74,6.74,0,0,0,1,3.83,3.63,3.63,0,0,0,3.23,1.46,5.14,5.14,0,0,0,2.7-.75,7.69,7.69,0,0,0,2.17-2,9.68,9.68,0,0,0,1.45-2.89,10.92,10.92,0,0,0,.52-3.39,6.74,6.74,0,0,0-1-3.83A3.63,3.63,0,0,0,461.43,188.83Z"/><path class="cls-8" d="M483.23,185.44a11.94,11.94,0,0,1,3.57.49,7.69,7.69,0,0,1,2.54,1.31,5.14,5.14,0,0,1,1.49,1.94,5.75,5.75,0,0,1,.49,2.34,8.39,8.39,0,0,1-.23,2,5.2,5.2,0,0,1-.85,1.86,7.07,7.07,0,0,1-1.68,1.63,9.84,9.84,0,0,1-2.7,1.27,39.6,39.6,0,0,1,1.75,3.85c.6,1.51,1.17,3.08,1.7,4.73h-5.1c-.47-1.4-.95-2.79-1.42-4.17a19.68,19.68,0,0,0-1.61-3.55H478.8l-1.86,7.72H472.2l5-20.86c1.1-.2,2.17-.34,3.21-.43S482.37,185.44,483.23,185.44Zm-.11,3.74-1.11,0-.94.06-1.42,6h1.67a9.77,9.77,0,0,0,2.55-.28,5,5,0,0,0,1.68-.76,2.69,2.69,0,0,0,.89-1.09,3,3,0,0,0,.27-1.24,3.22,3.22,0,0,0-.16-1A2,2,0,0,0,486,190a2.73,2.73,0,0,0-1.11-.6A5.81,5.81,0,0,0,483.12,189.18Z"/><path class="cls-8" d="M512.5,185.22l-.95,3.86H505.7l-4.26,17.77H496.5l4.27-17.77H495l.94-3.86Z"/></g></g></svg>