<?xml version="1.0" encoding="utf-8"?>
<!-- Generator: Adobe Illustrator 24.3.0, SVG Export Plug-In . SVG Version: 6.00 Build 0)  -->
<svg version="1.1" id="Calque_1" xmlns="http://www.w3.org/2000/svg" xmlns:xlink="http://www.w3.org/1999/xlink" x="0px" y="0px"
	 viewBox="0 0 434.4 186.6" style="enable-background:new 0 0 434.4 186.6;" xml:space="preserve">
<style type="text/css">
	.st0{fill:#EE2B37;}
	.st1{fill-rule:evenodd;clip-rule:evenodd;}
</style>
<g id="Cadran">
	<path class="st0" d="M27.3,146.6C12.7,107.3,26.2,62.8,61,38.3c35.8-25.2,79.8-19.8,106.9-0.2c-7.3,8.3-14.6,16.7-21.9,25.1
		c-15.7-11.5-33.2-16.3-52.4-14.8c-12.8,1.1-24.6,5.3-35.3,12.5c-13.9,9.3-23.9,21.9-29.6,37.7C23,114.4,22.7,130.4,27.3,146.6z"/>
	<path d="M19.3,62.2c2.4,1.6,4.6,3.3,6.9,4.8c1,0.6,1.2,1.2,0.6,2.2c-0.4,0.7-0.8,1.4-1,2.2c-0.3,0.8-0.7,0.8-1.4,0.6
		c-2.9-0.8-5.8-1.6-8.8-2.4c-7,15.5-10.2,31.6-9.4,48.6c3,0.4,5.8,0.7,8.7,1c0.9,0.1,1.2,0.4,1.2,1.3c0,0.5,0.1,1,0.1,1.6
		c0.1,2,0.1,2.1-1.8,2.5c-2.2,0.6-4.4,1.1-6.6,1.5c-0.8,0.2-1,0.5-0.9,1.2c0.4,2.7,0.7,5.4,1.3,8c1.2,4.8,2.2,9.7,3.9,14.3
		c1.9,5.3,4.4,10.3,6.7,15.4c0.8,1.7,1.9,3.3,2.8,5c0.4,0.8,1,1,1.9,0.7c2.2-0.6,4.4-1.2,6.5-1.9c0.7-0.2,1.2-0.2,1.5,0.6
		c0.2,0.6,0.5,1.2,0.8,1.7c0.8,1.7,0.8,1.7-0.8,2.8c-3.2,2.3-6.4,4.6-9.8,7C10.4,165.1,3.4,147.7,1,128.4c-2.4-19.3-0.3-38,7-56.1
		C28.8,20.5,77.1-0.7,114.6,0c31.2,0.6,57.9,11.7,80.1,33.5c11.3,11.1,19.6,24.3,25.6,39.1c-2.8,1.1-5.3,2.1-7.9,3.1
		c-1.4,0.5-2.8,1-4.2,1.6c-0.7,0.3-0.9,0.1-1.2-0.4c-0.6-1.1-1.3-2.1-2-3.3c2-1.7,3.9-3.5,5.9-5.1c0.7-0.6,0.7-1.1,0.4-1.8
		c-7.2-14.7-17.2-27.3-30-37.5c-2.4-1.9-2.4-1.9-4.5,0.2c-1.7,1.7-3.3,3.5-5,5.4c-1.6-1.1-2.9-2-4.2-2.9c1.5-3.1,2.9-6,4.4-9.2
		c-2.1-1.2-4.1-2.6-6.3-3.6c-4.6-2.2-9.3-4.4-14-6.3c-5.4-2.2-11.1-3.8-16.9-4.7c-4.7-0.7-9.5-1.2-14.2-1.8c-1-0.1-1.5,0.1-1.6,1.2
		c-0.3,2.3-0.7,4.6-1.1,6.9c-0.3,1.7-0.3,1.7-1.9,1.7c0,0-0.1,0-0.1,0c-3.2,0-3.2,0-3.6-3.1c-0.3-2-0.6-3.9-0.9-5.9
		c-0.1-0.3-0.6-0.7-0.9-0.7c-4,0.3-8.1,0.5-12,1.1c-4.8,0.8-9.7,1.7-14.4,3.1c-4.9,1.4-9.6,3.3-14.3,5.3c-3.1,1.3-6.1,3.1-9.1,4.7
		c-0.3,0.1-0.5,0.3-0.8,0.6c1.1,2.6,2.1,5.1,3.3,7.6c0.4,1,0.6,1.7-0.6,2.3c-0.9,0.4-1.8,1.1-2.7,1.7c-1.4-1.5-2.8-3-4.2-4.5
		c-0.7-0.7-1.3-1.4-1.9-2.1c-0.4-0.6-0.8-0.6-1.4-0.2c-7.3,5.2-13.9,11.2-19.8,18c-4.8,5.6-9,11.6-12.5,18
		C19.5,61.7,19.4,61.9,19.3,62.2z"/>
	<path d="M117.9,95.7c14.5-15.3,29.6-31.2,44.1-46.5c2.6-2.8,5.3-5.5,7.9-8.3c0.7-0.8,1.2-0.8,1.8-0.1c0.4,0.4,1,0.8,1.6,1.3
		c-15.2,21-30.3,42.1-45.6,63.2C123.8,100.3,117.3,96.3,117.9,95.7z"/>
</g>
<g id="Calque_2">
	<g>
		<g>
			<path d="M397.9,142.1c-3.2,3.1-6.3,6.2-9.4,9.2c-5.8,5.8-11.6,11.6-17.5,17.4c-0.5,0.5-1.2,1-1.8,1c-8.8,0.1-17.6,0-26.3,0
				c9.2-9.1,18.3-18.1,27.6-27.3c-9.7-9.6-18.8-18.7-28-27.8c0.1-0.2,0.2-0.3,0.3-0.5c1,0,2.1,0,3.1,0c7.5,0,15,0,22.5,0
				c1.2,0,2,0.3,2.9,1.2c8.5,8.5,17,17,25.5,25.4C397,141.1,397.3,141.4,397.9,142.1z"/>
			<path d="M379.5,169.2c9.1-9.1,18.3-18.1,27.7-27.4c-9.3-9.2-18.4-18.2-27.9-27.6c2.3,0,4,0,5.8,0c6.8,0,13.5,0,20.3,0
				c0.9,0,2,0.4,2.6,1c8.6,8.4,17,17,25.5,25.4c0.9,0.9,1.1,1.4,0,2.5c-8.6,8.5-17.1,17.1-25.7,25.6c-0.4,0.4-1.1,0.9-1.7,0.9
				c-8.8,0.1-17.7,0-26.5,0C379.7,169.6,379.6,169.4,379.5,169.2z"/>
		</g>
		<path d="M261.2,115.5c16.1-0.3,32.2-0.6,48.3-0.9c9.2-0.2,18.4-0.3,27.7-0.5c2.2-0.1,2.5,1.9,3.8,2.6c-0.1,0.2-0.1,0.3-0.2,0.5
			c-26.6-0.5-53.1-1-79.7-1.5C261.1,115.6,261.1,115.6,261.2,115.5z"/>
		<path d="M310.9,108.7c19.1-0.4,36.3-1.1,55.4-1.5c11-0.2,21.9-0.3,32.9-0.6c2.6-0.1,4.9,2.8,6.5,3.8c-0.1,0.2-0.1,0.4-0.2,0.6
			c-31.5-0.7-63.1-1.3-94.6-2C310.9,108.9,310.9,108.8,310.9,108.7z"/>
		<path d="M268.4,102.7c19.1-0.4,36.3-1.1,55.4-1.5c11-0.2,21.9-0.3,32.9-0.6c2.6-0.1,4.9,2.8,6.5,3.8c-0.1,0.2-0.1,0.4-0.2,0.6
			c-31.5-0.7-63.1-1.3-94.6-2C268.4,102.9,268.4,102.8,268.4,102.7z"/>
		<path d="M262.5,168c16.1,0.3,32.2,0.6,48.3,0.9c9.2,0.2,18.4,0.3,27.7,0.5c2.2,0.1,2.5-1.9,3.8-2.6c-0.1-0.2-0.1-0.3-0.2-0.5
			c-26.6,0.5-212.7,1-239.3,1.5C102.9,167.9,262.5,167.9,262.5,168z"/>
		<path d="M321.9,179.2c16.1,0.3,32.2,0.6,48.3,0.9c9.2,0.2,18.4,0.3,27.7,0.5c2.2,0.1,6.5-5.7,7.8-6.4c-0.1-0.2-0.1-0.3-0.2-0.5
			c-26.6,0.5-228,1-254.6,1.5C151,175.3,321.9,179.2,321.9,179.2z"/>
	</g>
</g>
<g id="Calque_3">
	<g>
		<path class="st0" d="M143.9,120.1h10.4l-6.5,17.8l22.8-17.8h13.1l-21.4,16.2l6.7,27.5h-12.3l-4.5-19.8l-9.2,7l-4.7,12.8H128
			L143.9,120.1z"/>
		<path class="st0" d="M237.3,120.1l-15.9,43.7h-10.5l12-31.1l1.7-4.4l-0.9,1.5c-1.5,2.5-1.6,2.8-2.8,4.6L202,163.8h-9.4l2.3-28.1
			l0.9-7.8c-1.1,3.5-1.3,4.2-2.7,8.3l-9.5,27.5h-10.6l15.9-43.7h16l-2.2,24.5l-1,7c1.7-3,1.9-3.3,3.1-5.4l16.5-26.1H237.3z"/>
		<path class="st0" d="M245.9,120.1h9.4l-2.7,7.4h-9.4L245.9,120.1z M241.8,131.4h9.4l-11.8,32.3H230L241.8,131.4z"/>
		<path class="st0" d="M263.8,120.1h10.4l-6.5,17.8l22.8-17.8h13.1l-21.4,16.2l6.7,27.5h-12.3l-4.5-19.8l-9.2,7l-4.7,12.8h-10.4
			L263.8,120.1z"/>
		<path class="st0" d="M307.1,120.1h35.3l-3.1,8.5l-33.5,26.5h23.7l-3.1,8.6h-37.2l3-8.2l34-27H304L307.1,120.1z"/>
	</g>
</g>
<g>
	<g>
		<path d="M155.6,90.5h19.7l-1.8,5.1h-6.6l-7.5,20.5H153l7.5-20.5h-6.7L155.6,90.5z"/>
		<path d="M178.2,90.5H197l-1.8,5h-12.5l-1.7,4.6h11.7L191,105h-11.7l-2.2,6.1h13.6l-1.8,5h-20L178.2,90.5z"/>
		<path d="M215.2,90.5l0.1,25.5h-6.8l0.2-4.1h-9.4l-2.8,4.1h-6.8l18.8-25.5H215.2z M209.5,96.6c-0.8,1.3-1.6,2.6-2.5,3.9
			c-1.2,1.9-3.3,4.9-4.6,6.8h6.5L209.5,96.6z"/>
		<path d="M255.4,90.5l-9.3,25.5H240l7-18.2l1-2.6l-0.5,0.9c-0.9,1.4-1,1.6-1.6,2.7l-11.1,17.2h-5.5l1.3-16.4l0.5-4.6
			c-0.6,2-0.8,2.5-1.6,4.9l-5.5,16.1h-6.2l9.3-25.5h9.3l-1.3,14.3l-0.6,4.1c1-1.8,1.1-2,1.8-3.1l9.6-15.3H255.4z"/>
	</g>
</g>
<g>
	<polygon class="st1" points="114.6,134 118.2,119 97.5,118 93.4,112.2 126.1,110.3 126.4,110.6 123.2,130.3 109.2,142 	"/>
	<polygon class="st1" points="113.2,133.3 112.7,123.3 103.1,118.9 109.1,119 116.7,120.4 113.2,133.3 	"/>
	<polyline class="st1" points="80.4,123.6 83.3,124 82.3,119.4 88.9,124.4 82.8,137.5 75.6,149.3 	"/>
	<polygon class="st1" points="59.6,124.7 50.4,124.9 45,127 40.5,132.9 49.1,127.6 	"/>
	<polygon class="st1" points="45.8,134.6 55.7,133.5 50.8,130.8 45.1,131.8 41.1,134.9 50.5,137.5 	"/>
	<polygon points="59.4,170.7 64.4,173.8 57.4,174.6 54,164.2 	"/>
	<polygon class="st1" points="35.5,130.2 38.4,139.1 51.1,141.2 58.8,138.4 68.1,146.6 71.7,156.2 72.7,171.9 69,174.7 67.2,182 
		69.6,186.6 62.9,184.2 57.1,175.5 65,174.7 68,168.3 67.5,159.5 64.7,152.2 60.3,146.8 57.5,145 41,145.4 36.6,143.6 30.8,135.4 
		30.7,131.1 	"/>
	<polygon class="st1" points="35.3,129 35.6,127.4 43.2,123.1 37.8,122.5 50.1,118 49.6,119.9 57.2,116.1 63.5,113.9 56,113 
		76.6,111.6 74,113.7 78.3,114.2 72.3,115.3 77.8,118.2 84.4,117.7 86.8,120.5 92.9,124.1 91.6,124.5 93.7,126 90,128.1 
		102.8,126.9 103.4,124.9 100.5,124.7 102.9,123.8 108.3,131.1 106.3,121.3 84.6,116.6 90.8,115.1 80.8,113.8 83.9,112.4 
		85.3,113.1 88.9,112.1 92.2,111.3 99.4,111.2 105.6,105.9 111.1,103.9 100.8,104.9 101.6,101.3 82.2,105.5 90.9,94.8 73.1,105.2 
		77.9,92.9 69.4,104.3 66.4,98.8 65,106.6 54.5,108 51.2,108.9 50.9,111.3 45.6,113.4 39.9,115.1 30.3,122.2 28.5,125.9 30.5,130.3 
			"/>
	<polygon class="st1" points="68.1,118.3 64.4,118.3 72.6,112.3 72.6,112.3 46.6,122.6 45.3,123.5 58.8,123.3 64.6,126.7 
		66.2,135.3 69.4,123.2 	"/>
	<polygon class="st1" points="68.3,117.6 69.3,115.3 81.9,121.7 78.8,122.9 77,138.8 73.3,149.2 69.7,122.6 	"/>
	<polygon class="st1" points="61.1,130.6 66.2,136.4 67.7,144 61.7,137.8 55.3,136.9 60.1,133.5 	"/>
	<polygon class="st1" points="52.4,161 48.6,149.7 48.8,145.7 41.9,146.4 52.4,161 	"/>
	<polygon class="st1" points="86.1,134 96,130.1 102.5,133.9 108.3,131.6 107,137 102.7,138.8 105.2,145.2 101.5,152.1 101.8,144.8 
		96.8,142.2 99.6,140.7 97.6,136.9 93.4,136.8 94.7,144.2 81.4,158.3 87.1,137 90.4,141.3 91.3,139.2 	"/>
	<polygon class="st1" points="109.2,154.9 101.4,155.9 99.3,150.8 98.5,145.5 95.2,151.8 92.8,147.6 90.9,155.2 86,156.7 87.7,159 
		83.9,162.6 87,162.4 87.9,164 82.8,165.7 74.4,173.2 84.8,168.5 92.2,167.2 90.9,163.7 92,158.8 97,163.5 95.6,157.9 100.7,159.9 	
		"/>
	<polygon class="st1" points="58.8,170.5 63.3,173.8 57.2,174.5 53.2,162.7 	"/>
</g>
</svg>
