<?xml version="1.0" standalone="no"?>
<!DOCTYPE svg PUBLIC "-//W3C//DTD SVG 20010904//EN"
 "http://www.w3.org/TR/2001/REC-SVG-20010904/DTD/svg10.dtd">
<svg version="1.0" xmlns="http://www.w3.org/2000/svg"
 width="999.000000pt" height="999.000000pt" viewBox="0 0 999.000000 999.000000"
 preserveAspectRatio="xMidYMid meet">
<metadata>
Created by potrace 1.14, written by Peter Selinger 2001-2017
</metadata>
<g transform="translate(0.000000,999.000000) scale(0.100000,-0.100000)"
fill="#000000" stroke="none">
<path d="M5013 9743 c-10 -16 -20 -30 -23 -33 -3 -3 -57 -75 -120 -160 -63
-85 -119 -159 -123 -165 -4 -5 -60 -80 -123 -165 -63 -85 -123 -166 -134 -180
-10 -14 -82 -110 -160 -215 -78 -104 -145 -194 -149 -198 -9 -9 -30 24 -102
158 -23 44 -70 130 -103 190 -34 61 -70 127 -81 148 -22 41 -30 46 -32 20 -1
-15 -28 -161 -97 -533 -8 -41 -20 -106 -27 -145 -7 -38 -15 -73 -18 -77 -3 -4
-19 -9 -36 -12 -42 -7 -171 -25 -225 -31 -25 -3 -58 -8 -75 -10 -16 -2 -115
-15 -220 -29 -104 -14 -203 -28 -220 -30 -16 -3 -52 -8 -80 -11 -27 -3 -59 -8
-70 -10 -11 -2 -42 -7 -70 -10 -54 -6 -396 -94 -406 -104 -4 -3 -10 -35 -13
-71 -13 -130 -18 -165 -25 -172 -3 -3 -58 -26 -121 -51 -239 -94 -436 -169
-450 -172 -8 -2 -69 -20 -135 -40 -102 -31 -278 -83 -391 -116 -17 -5 -55 -28
-85 -51 -31 -24 -66 -51 -80 -60 -32 -24 -167 -124 -199 -148 -14 -10 -95 -71
-180 -134 -85 -63 -159 -119 -165 -123 -5 -5 -26 -20 -45 -33 -19 -13 -40 -29
-46 -35 -6 -5 -53 -39 -103 -75 l-92 -65 -95 -193 -94 -193 96 -222 c53 -122
97 -224 99 -226 3 -2 24 2 47 8 24 6 50 13 58 15 35 9 209 58 257 72 29 9 58
17 65 18 68 14 70 18 92 150 3 16 6 29 8 31 3 2 236 132 333 185 72 39 194
108 215 120 8 5 40 22 70 39 157 85 166 91 140 92 -14 1 -34 3 -45 4 -11 1
-45 6 -75 9 -30 4 -71 9 -90 11 -19 3 -57 7 -85 10 -232 24 -247 27 -203 40
21 7 62 21 301 109 137 51 445 162 582 211 66 24 169 61 229 83 123 46 115 54
78 -75 l-20 -72 21 8 c12 5 186 91 387 191 316 157 394 192 580 257 118 41
251 87 295 103 44 16 93 32 108 36 37 9 28 15 -25 20 -24 2 -56 5 -73 8 -16 2
-52 7 -80 11 -27 3 -64 8 -82 10 -17 3 -73 9 -125 15 -51 6 -100 12 -108 15
-8 2 -42 7 -75 10 -154 14 -190 24 -89 26 32 0 66 2 74 4 9 1 72 6 140 10 69
3 145 8 170 10 25 1 92 6 150 9 204 13 265 17 305 21 22 2 90 6 150 10 61 4
133 8 160 11 28 2 95 6 150 9 55 4 127 8 160 10 33 3 98 7 145 10 47 3 117 7
155 10 39 3 113 8 165 11 93 6 95 5 73 -13 -12 -10 -69 -56 -127 -103 -58 -46
-104 -86 -102 -87 1 -2 25 -5 52 -8 94 -11 129 -15 154 -19 41 -8 153 -18 180
-17 53 2 0 -16 -95 -34 -55 -9 -109 -19 -120 -21 -11 -2 -33 -6 -50 -9 -16 -3
-52 -10 -80 -15 -27 -5 -66 -12 -85 -15 -19 -3 -59 -10 -89 -16 l-54 -11 99
-52 c312 -163 383 -201 422 -223 45 -24 77 -25 252 -8 19 2 82 7 140 10 58 4
113 9 122 10 9 2 58 6 110 9 l93 6 121 -143 121 -142 310 -180 c171 -99 309
-183 307 -186 -2 -4 -26 -12 -54 -19 -49 -12 -75 -30 -52 -38 11 -3 170 -116
185 -132 5 -4 -53 -43 -130 -86 -76 -42 -160 -90 -188 -105 l-50 -29 45 5 c25
3 72 8 105 10 33 3 78 7 100 9 22 3 74 7 115 11 41 3 93 8 115 11 22 2 65 6
95 9 30 3 78 7 105 10 28 2 82 7 120 10 39 3 84 8 100 10 17 2 68 7 115 11 47
3 96 8 110 10 14 1 59 6 100 9 41 4 78 10 81 13 9 10 60 194 55 199 -3 3 -166
15 -248 17 -41 1 -34 10 20 28 26 8 77 27 114 41 l68 26 83 -112 c71 -95 213
-287 420 -567 l48 -65 -6 40 c-4 22 -14 69 -22 105 -8 36 -16 76 -18 90 -2 14
-17 93 -34 175 -17 83 -33 164 -36 180 -19 105 -83 406 -86 409 -3 3 -17 7
-32 10 -15 2 -35 7 -45 10 -9 3 -31 8 -47 10 -17 3 -70 14 -120 25 -75 16
-166 36 -352 76 -13 3 -33 7 -45 10 -29 6 -258 55 -278 60 -8 1 -78 17 -155
33 -147 32 -148 33 -260 56 -38 8 -79 17 -90 20 -33 7 -336 73 -515 111 -217
46 -253 55 -257 59 -2 2 76 23 174 46 246 59 440 108 428 110 -5 1 -19 3 -30
5 -11 2 -44 7 -74 10 -30 3 -68 8 -85 10 -37 6 -94 13 -161 21 -27 3 -61 7
-75 10 -14 2 -117 15 -230 29 -113 14 -219 28 -237 30 -91 13 -107 16 -109 18
-1 1 37 20 84 41 48 22 118 55 156 73 l69 33 70 -40 70 -41 206 60 c174 50
247 69 371 96 8 2 35 9 60 15 58 15 119 18 494 21 l309 3 31 25 c17 14 38 33
46 41 9 8 40 35 70 60 30 25 61 52 70 60 8 8 42 38 75 65 33 28 65 55 71 60 6
6 35 30 64 55 30 25 61 52 70 60 8 8 40 35 70 60 30 25 57 47 60 50 8 9 52 28
110 48 30 10 138 49 240 87 174 64 233 90 182 80 -13 -2 -55 -7 -95 -10 -39
-3 -88 -8 -107 -10 -19 -2 -64 -7 -100 -10 -120 -11 -165 -15 -200 -20 -19 -3
-62 -7 -95 -10 -33 -3 -80 -8 -105 -11 -105 -12 -129 -14 -200 -19 -41 -4 -83
-9 -93 -12 -23 -6 -21 7 28 211 20 81 35 149 33 151 -2 1 -133 -26 -293 -61
-159 -35 -303 -66 -320 -69 -16 -3 -51 -10 -76 -16 -26 -6 -55 -12 -65 -14
-11 -2 -19 -4 -19 -5 0 -1 -9 -3 -20 -4 -11 -2 -96 -20 -190 -41 -93 -20 -181
-39 -195 -42 -14 -2 -86 -18 -160 -34 -74 -16 -146 -31 -160 -34 -14 -2 -77
-16 -140 -30 -63 -14 -126 -28 -140 -30 -14 -3 -62 -13 -107 -23 -46 -11 -83
-17 -83 -15 0 3 48 63 204 257 17 22 36 44 41 50 36 39 616 768 613 771 -1 2
-50 -26 -108 -61 -58 -35 -112 -67 -120 -71 -8 -4 -58 -32 -110 -63 -109 -65
-270 -159 -317 -187 -17 -10 -80 -47 -140 -82 -59 -35 -128 -75 -153 -89 -25
-14 -72 -42 -105 -62 -33 -20 -67 -39 -75 -43 -8 -4 -28 -16 -45 -26 -77 -48
-613 -361 -619 -361 -4 0 19 61 55 145 5 11 35 90 68 175 33 85 115 295 181
465 180 458 179 455 174 455 -2 0 -11 -12 -21 -27z"/>
<path d="M9939 8006 c-2 -2 -56 -7 -119 -11 -63 -3 -142 -8 -175 -10 -33 -2
-109 -6 -170 -10 -60 -3 -135 -8 -165 -10 -30 -2 -104 -7 -165 -10 -60 -4
-137 -8 -170 -10 -33 -2 -100 -6 -150 -9 -91 -6 -230 -14 -340 -21 -140 -9
-256 -16 -340 -20 -49 -2 -119 -7 -155 -10 -60 -5 -140 -9 -340 -20 -73 -4
-186 -11 -320 -20 -36 -2 -117 -7 -180 -10 -63 -4 -135 -8 -160 -10 -60 -5
-286 -18 -332 -19 -22 0 -34 -5 -30 -11 6 -12 402 -567 411 -577 3 -3 76 -9
161 -13 85 -3 184 -8 220 -10 36 -2 121 -7 190 -10 69 -3 163 -8 210 -10 47
-2 139 -7 205 -10 66 -3 163 -8 215 -11 52 -2 154 -7 225 -9 72 -3 157 -8 190
-10 33 -2 130 -7 215 -11 185 -8 261 -11 277 -13 8 -1 7 -18 -4 -63 -8 -35
-16 -70 -18 -78 -2 -8 -26 -109 -54 -225 -28 -115 -69 -286 -91 -380 -23 -93
-52 -213 -65 -266 -13 -53 -26 -107 -29 -120 -2 -13 -25 -109 -50 -213 l-46
-188 -119 -177 c-65 -97 -164 -243 -219 -326 -56 -82 -105 -155 -109 -160 -25
-32 -92 -135 -88 -135 5 0 181 145 195 160 3 3 30 25 60 50 30 25 57 47 60 50
5 5 172 145 198 165 7 5 18 15 25 21 7 6 55 46 107 90 52 43 104 86 115 96 11
9 70 58 130 108 61 51 121 102 135 114 31 26 384 320 386 320 1 1 4 19 8 41 3
22 8 51 10 65 3 14 7 43 11 65 5 36 12 77 21 130 6 29 13 75 19 115 2 19 9 62
15 95 6 33 13 74 15 90 6 40 58 353 80 485 2 14 13 81 25 150 11 69 22 134 24
145 2 11 7 43 10 70 4 28 9 57 11 65 4 16 16 83 19 115 2 11 6 36 9 55 29 160
48 293 45 316 -3 24 -38 60 -49 50z"/>
<path d="M4200 7679 c-151 -60 -345 -137 -430 -170 -85 -34 -168 -67 -185 -74
-16 -6 -142 -56 -280 -110 -137 -53 -259 -101 -270 -106 -11 -4 -87 -35 -170
-67 -82 -32 -159 -63 -170 -67 -11 -5 -22 -9 -25 -10 -3 -1 -18 -7 -35 -14
-16 -6 -43 -17 -60 -23 -16 -6 -48 -19 -70 -28 -22 -9 -78 -32 -125 -50 -47
-18 -98 -38 -115 -45 -16 -7 -68 -27 -115 -45 -47 -17 -94 -36 -105 -40 -86
-37 -171 -70 -178 -70 -12 0 -137 -92 -137 -101 0 -4 26 -5 57 -3 50 2 798 13
1178 16 l121 1 67 -39 c38 -21 76 -43 85 -49 10 -5 113 -65 229 -133 117 -68
214 -131 217 -140 3 -9 14 -69 26 -132 11 -63 25 -135 30 -160 5 -25 12 -58
15 -75 3 -16 7 -41 10 -55 11 -57 49 -258 60 -315 3 -16 8 -46 12 -65 3 -19 6
-38 5 -42 -1 -5 2 -8 6 -8 4 0 16 33 26 73 10 39 34 130 53 201 19 72 36 137
38 145 2 9 10 43 19 76 9 33 19 71 22 85 3 14 13 54 24 90 10 36 29 103 40
150 12 47 24 92 26 100 2 8 21 80 41 160 l38 145 -23 85 c-13 47 -31 114 -41
150 -10 36 -29 103 -41 150 -12 47 -25 92 -29 100 -7 12 -39 15 -185 16 -97 1
-179 3 -181 6 -3 3 32 31 77 64 85 61 393 283 553 399 50 36 112 81 140 100
27 19 45 35 40 34 -6 0 -134 -50 -285 -110z"/>
<path d="M4150 7464 c-19 -50 -54 -129 -60 -139 -7 -10 -22 -60 -25 -80 0 -5
7 -36 17 -68 10 -32 20 -68 22 -80 3 -12 23 -87 46 -167 35 -124 66 -297 95
-525 4 -27 8 -61 10 -75 2 -14 6 -43 9 -65 7 -52 15 -107 21 -147 2 -18 9 -71
16 -118 6 -47 12 -94 14 -105 1 -11 6 -47 10 -80 4 -33 9 -68 11 -79 2 -10 6
-44 10 -75 3 -31 8 -58 9 -61 2 -3 6 -39 10 -80 4 -41 8 -77 10 -80 2 -3 6
-34 10 -70 4 -36 9 -74 11 -85 2 -11 7 -40 10 -65 5 -47 11 -87 19 -130 2 -14
7 -50 10 -80 4 -30 8 -66 10 -80 4 -25 21 -152 30 -220 2 -19 9 -69 15 -110 6
-41 13 -97 16 -125 3 -27 7 -57 9 -65 2 -8 7 -42 10 -75 3 -33 8 -67 10 -75 4
-16 10 -57 20 -150 6 -49 25 -96 25 -61 0 8 25 82 56 165 31 83 71 194 90 246
18 52 42 120 53 150 142 393 172 480 176 513 3 20 8 56 11 80 3 23 7 58 9 78
8 90 16 167 21 200 2 20 7 56 9 80 2 24 7 71 10 104 4 33 8 71 10 85 3 14 7
52 10 85 3 33 7 76 10 95 2 19 7 64 11 100 3 36 7 72 9 80 2 8 6 53 10 100 4
47 8 87 10 90 2 3 6 41 9 85 4 44 9 94 11 110 3 17 7 51 10 78 9 83 17 142 20
145 1 1 58 22 126 46 156 55 183 66 178 70 -2 2 -83 44 -179 93 -96 50 -240
124 -320 165 -80 42 -248 128 -375 193 -126 65 -268 138 -314 162 -46 23 -85
43 -88 43 -2 0 -8 -12 -13 -26z"/>
<path d="M7685 7090 c33 -16 251 -117 484 -224 319 -146 425 -198 427 -212 2
-11 6 -73 9 -139 7 -151 13 -285 20 -445 3 -69 8 -170 11 -225 4 -55 6 -115 5
-132 -2 -30 14 -49 17 -20 0 6 15 62 32 122 17 61 39 142 49 180 11 39 49 178
86 310 36 132 68 249 70 259 3 11 16 58 29 105 37 128 76 277 76 289 0 10 -30
20 -87 27 -15 2 -44 6 -63 10 -38 6 -372 67 -510 92 -96 17 -148 20 -480 27
l-235 5 60 -29z"/>
<path d="M5494 7044 c4 -16 8 -40 11 -53 8 -44 55 -265 66 -311 21 -88 23 -81
-29 -75 -26 3 -72 9 -102 15 -30 5 -74 12 -97 15 l-41 6 -13 -58 c-7 -32 -13
-65 -14 -73 -3 -23 -24 -132 -51 -274 -30 -151 -27 -137 -49 -251 -9 -49 -19
-101 -21 -115 -3 -14 -13 -70 -24 -125 -10 -55 -21 -111 -24 -125 -5 -29 -36
-195 -42 -225 -2 -11 -13 -67 -24 -125 -11 -58 -22 -116 -25 -130 -8 -38 -93
-490 -116 -610 -10 -58 -21 -112 -24 -120 -2 -8 -6 -31 -9 -50 -3 -19 -15 -84
-27 -145 -11 -60 -23 -121 -25 -135 -3 -14 -7 -31 -9 -37 -2 -7 -1 -13 3 -13
4 1 41 58 83 128 42 70 173 286 292 481 120 194 217 357 217 361 0 5 3 10 8
12 21 9 147 238 232 423 18 39 61 130 96 203 35 74 64 135 64 137 0 1 52 112
116 246 64 134 125 264 136 289 12 25 41 88 65 140 25 52 45 98 46 101 2 6
-83 72 -479 374 -216 165 -197 153 -190 119z"/>
<path d="M2966 6523 c-1 -1 -167 -4 -368 -7 l-366 -6 -119 -46 c-65 -25 -158
-61 -208 -80 -252 -97 -217 -73 -328 -219 -54 -71 -106 -139 -115 -150 -10
-11 -28 -36 -42 -55 -14 -19 -30 -42 -37 -50 -7 -8 -44 -55 -83 -105 -68 -88
-88 -123 -52 -94 9 8 46 32 82 54 80 47 416 253 495 303 11 6 27 15 35 19 8 4
17 9 20 12 3 4 52 35 110 70 82 50 128 70 210 93 104 29 124 34 158 42 41 10
510 137 537 145 17 5 77 22 135 37 58 14 108 29 112 33 4 4 -33 7 -83 6 -50 0
-92 -1 -93 -2z"/>
<path d="M6744 5921 c-200 -77 -642 -250 -679 -266 -16 -7 -63 -25 -102 -40
-40 -16 -73 -31 -73 -35 0 -4 117 -124 259 -267 l259 -259 -41 -107 c-23 -59
-45 -107 -48 -107 -3 0 -48 55 -100 123 -51 67 -98 127 -104 133 -5 7 -36 46
-68 88 -32 42 -61 76 -65 76 -4 0 -29 -84 -55 -188 -27 -103 -57 -216 -67
-252 -11 -36 -21 -76 -24 -90 -4 -22 -32 -125 -106 -400 -11 -41 -48 -178 -81
-305 -33 -126 -67 -255 -75 -285 -8 -30 -33 -125 -55 -210 -22 -85 -56 -211
-75 -280 -19 -69 -34 -130 -34 -137 0 -10 21 10 120 117 109 117 234 251 270
289 153 163 292 311 320 341 40 44 239 256 303 324 27 28 86 92 132 141 46 50
109 117 139 150 31 33 56 64 56 69 0 13 -39 245 -50 296 -5 25 -11 59 -14 75
-2 17 -12 73 -21 125 -9 52 -18 106 -20 120 -2 14 -8 47 -14 75 -5 27 -8 52
-6 53 4 4 36 4 259 -3 88 -2 163 -8 167 -12 7 -7 60 -105 167 -304 l41 -76
-134 -69 c-73 -38 -134 -73 -135 -78 -1 -5 24 -24 57 -41 32 -17 142 -75 246
-130 l187 -99 -5 -136 c-7 -204 -15 -383 -21 -500 -6 -120 -7 -120 66 15 24
44 53 98 65 120 13 22 41 74 62 115 22 41 73 135 113 208 l72 134 -45 116
c-25 65 -84 213 -131 330 l-84 213 46 21 c26 11 126 53 223 94 97 41 176 80
177 87 3 25 9 53 15 77 26 94 107 443 104 446 -3 3 -185 -66 -252 -96 -58 -25
-319 -123 -329 -123 -10 0 -283 156 -587 336 l-76 45 -149 -57z"/>
<path d="M675 5963 c-11 -2 -114 -22 -229 -45 -226 -43 -238 -46 -231 -58 2
-4 7 -83 11 -176 3 -93 7 -187 8 -209 2 -34 31 -81 207 -335 113 -162 232
-333 264 -380 110 -159 114 -163 163 -183 26 -11 61 -25 77 -32 17 -8 98 -40
180 -73 139 -54 155 -59 220 -57 39 2 196 6 350 10 154 4 330 8 390 10 61 1
243 6 405 10 162 4 334 8 382 10 l88 2 132 -84 c135 -85 163 -110 253 -225 27
-34 52 -65 55 -68 3 -3 71 -86 151 -185 l145 -180 88 -230 c49 -126 104 -270
123 -320 19 -49 43 -110 53 -135 17 -43 21 -75 35 -355 3 -44 7 -118 10 -165
2 -47 7 -139 10 -205 4 -66 8 -145 9 -176 3 -45 -2 -67 -27 -120 -134 -287
-247 -531 -247 -537 0 -4 -8 -17 -18 -29 -14 -17 -31 -22 -97 -27 -44 -4 -91
-8 -105 -10 -14 -3 -56 -8 -95 -11 -38 -4 -81 -9 -95 -10 -14 -1 -59 -6 -100
-10 -80 -8 -88 -9 -195 -20 -38 -5 -81 -9 -95 -9 -14 -1 -25 -6 -25 -12 0 -7
180 -280 513 -773 l70 -104 233 -84 c355 -128 449 -161 449 -157 0 3 -29 60
-64 127 -35 67 -89 170 -119 229 l-55 107 23 93 c13 51 26 104 29 118 6 31 7
34 45 195 18 72 41 171 52 220 11 50 24 97 28 105 4 8 92 79 196 157 l188 143
-2 67 c-1 38 -4 82 -6 98 -4 30 -14 185 -20 300 -4 71 -13 219 -20 325 -6 82
-11 168 -20 305 -3 50 -8 117 -10 150 -2 33 -7 110 -10 170 -4 61 -8 129 -10
152 -2 37 -21 98 -55 178 -10 22 -17 41 -144 380 -48 127 -91 239 -96 250 -4
11 -25 63 -45 115 -32 83 -43 100 -88 139 -29 24 -70 60 -92 80 -22 20 -74 65
-115 101 -41 36 -80 70 -86 75 -16 15 -125 111 -274 240 -74 65 -155 136 -180
159 -81 75 -157 136 -162 131 -4 -5 -237 -92 -263 -99 -5 -2 -17 -6 -25 -9
-16 -7 -128 -47 -353 -128 -77 -27 -142 -47 -145 -45 -4 2 -31 7 -61 11 -30 4
-63 9 -75 11 -21 4 -86 14 -121 19 -11 2 -36 6 -55 10 -19 3 -46 8 -60 10 -41
6 -517 83 -610 99 -36 7 -63 11 -128 21 -21 3 -49 7 -62 10 -13 3 -42 7 -64
11 -22 3 -44 8 -48 10 -4 3 -39 105 -79 227 -39 122 -79 247 -89 277 -10 30
-41 129 -70 220 -28 91 -53 171 -55 178 -5 12 -6 13 -40 5z"/>
<path d="M3319 5917 c-2 -10 -6 -27 -8 -29 -1 -2 -20 -59 -44 -128 l-42 -124
-175 -123 c-96 -68 -183 -128 -192 -135 -10 -7 -40 -29 -68 -48 -27 -19 -50
-38 -50 -41 0 -3 26 -9 58 -13 74 -9 69 -8 327 -46 121 -18 228 -32 238 -32
15 1 98 -79 253 -244 138 -146 378 -393 380 -391 1 1 -6 43 -16 92 -10 50 -36
182 -59 295 -76 384 -77 390 -103 418 -14 15 -119 133 -233 262 -235 266 -264
298 -266 287z"/>
<path d="M2220 5899 c-19 -4 -54 -11 -76 -13 -23 -3 -48 -8 -55 -10 -8 -3 -32
-8 -54 -11 -22 -3 -80 -13 -130 -21 -49 -9 -99 -18 -110 -19 -72 -11 -101 -18
-110 -24 -172 -130 -395 -305 -395 -311 0 -4 15 -10 33 -14 17 -3 55 -13 82
-21 28 -8 172 -49 320 -90 149 -42 299 -85 335 -95 164 -47 177 -50 155 -34
-11 9 -103 68 -205 132 -102 64 -187 119 -190 122 -3 4 -13 9 -22 13 -30 11
-20 23 21 25 21 2 47 4 57 6 11 2 48 7 84 10 36 4 101 11 145 16 44 5 105 12
135 15 30 3 71 8 90 10 19 2 62 7 95 10 33 4 71 8 85 10 14 2 52 6 85 10 33 3
69 8 80 10 11 2 38 4 59 4 24 1 36 5 30 10 -5 5 -63 37 -129 71 -66 35 -124
66 -130 70 -16 12 -243 130 -246 129 -2 -1 -20 -5 -39 -10z"/>
<path d="M7116 4350 c-16 -30 -41 -77 -56 -105 -15 -27 -60 -113 -100 -190
-126 -243 -143 -275 -151 -275 -4 0 -29 37 -55 83 -26 45 -62 107 -80 137 -17
30 -50 85 -71 123 l-40 67 -21 -77 c-12 -43 -23 -89 -26 -103 -3 -14 -15 -61
-26 -105 -12 -44 -23 -87 -25 -95 -2 -8 -24 -99 -50 -202 l-47 -187 -147 -47
c-80 -25 -186 -59 -236 -75 -49 -16 -96 -29 -102 -29 -7 0 -13 -3 -13 -6 0 -4
36 -55 80 -115 44 -60 80 -113 80 -117 0 -7 -208 -208 -321 -311 -27 -24 -49
-47 -49 -51 0 -7 82 -6 246 4 68 4 70 2 128 -109 l26 -50 -52 -17 c-29 -9
-147 -47 -262 -84 l-210 -68 -110 -99 c-61 -55 -154 -139 -206 -187 -52 -47
-117 -106 -145 -131 -27 -24 -61 -55 -76 -69 -14 -14 -61 -56 -104 -95 -43
-38 -106 -96 -139 -127 l-61 -57 145 65 c80 36 169 77 198 90 29 13 54 24 57
24 2 0 36 15 77 34 40 18 170 77 288 131 118 53 228 103 244 111 26 13 170 44
271 58 23 4 52 9 65 11 14 3 39 8 55 10 17 3 107 19 200 36 94 17 178 31 188
32 23 2 22 3 -17 105 -100 257 -98 251 -86 301 6 25 12 55 14 66 6 26 86 368
89 377 1 4 29 -18 63 -50 99 -92 395 -375 415 -396 27 -28 25 -17 -22 174 -39
161 -57 236 -65 274 -2 10 -8 34 -15 53 -6 18 -9 37 -7 42 2 4 80 -22 173 -59
177 -71 181 -72 283 -115 l63 -26 115 68 c63 37 129 76 147 87 152 88 574 341
582 349 6 6 -5 7 -30 3 -41 -6 -102 -14 -165 -21 -82 -9 -146 -18 -165 -21
-11 -2 -49 -7 -85 -10 -36 -4 -76 -8 -90 -10 -14 -1 -47 -6 -75 -9 -179 -24
-166 -24 -175 -1 -20 52 -163 395 -181 435 -19 40 -30 91 -43 186 -34 251 -42
307 -55 380 l-7 40 -28 -55z"/>
<path d="M1957 4374 c-1 -1 -38 -5 -82 -8 -44 -4 -96 -9 -115 -11 -53 -6 -170
-17 -320 -31 -36 -3 -67 -7 -68 -9 -2 -2 52 -81 120 -175 67 -95 141 -198 163
-230 22 -31 48 -68 58 -81 10 -13 101 -141 203 -284 102 -143 192 -269 200
-280 8 -11 75 -105 150 -210 75 -104 142 -196 149 -204 7 -7 -72 240 -176 550
-104 310 -190 575 -190 589 -2 22 6 187 16 338 l3 53 -55 -3 c-30 -2 -55 -4
-56 -4z"/>
<path d="M2524 2625 c4 -11 45 -132 91 -270 324 -965 305 -912 322 -908 7 1
80 8 183 18 41 4 153 16 180 20 27 4 119 13 189 20 24 2 45 6 48 8 2 3 -96 78
-218 168 -219 161 -244 185 -332 310 -95 135 -460 645 -465 649 -3 3 -2 -4 2
-15z"/>
</g>
</svg>
